<svg width="31" height="32" viewBox="0 0 31 32" fill="none" xmlns="http://www.w3.org/2000/svg">
<path d="M14.6954 30.16C14.5247 30.1173 14.4074 30.0213 14.3434 29.872C14.3007 29.7013 14.258 29.5413 14.2154 29.392C14.1727 29.2427 14.1514 29.0933 14.1514 28.944V28.752C14.1727 28.5387 14.162 28.3253 14.1194 28.112C14.0767 27.92 14.0447 27.7173 14.0234 27.504C14.0234 27.4187 14.0127 27.3547 13.9914 27.312L13.6394 26.64C13.5967 26.5973 13.5327 26.512 13.4474 26.384C13.3834 26.2347 13.3087 26.1067 13.2234 26C13.1594 25.872 13.0847 25.744 12.9994 25.616C12.9567 25.5307 12.9034 25.456 12.8394 25.392C12.7754 25.328 12.7114 25.2533 12.6474 25.168C12.6047 25.104 12.562 25.0293 12.5194 24.944C12.4767 24.8587 12.4127 24.784 12.3274 24.72L12.2314 24.56C12.146 24.4107 12.0607 24.272 11.9754 24.144C11.9114 24.016 11.8474 23.888 11.7834 23.76L11.6874 23.568C11.602 23.2907 11.506 23.024 11.3994 22.768C11.314 22.512 11.218 22.2453 11.1114 21.968C11.0474 21.7973 10.9834 21.6373 10.9194 21.488C10.8767 21.3387 10.8127 21.1893 10.7274 21.04C10.578 20.72 10.482 20.3787 10.4394 20.016C10.418 19.76 10.4394 19.4933 10.5034 19.216C10.5674 19.0453 10.6634 18.896 10.7914 18.768C11.1967 18.4267 11.6447 18.2987 12.1354 18.384L12.4874 18.448C12.7434 18.5547 12.9247 18.704 13.0314 18.896C13.1167 19.0453 13.1914 19.2053 13.2554 19.376C13.3194 19.5253 13.362 19.696 13.3834 19.888C13.426 20.016 13.4687 20.1547 13.5114 20.304C13.554 20.432 13.6074 20.5707 13.6714 20.72C13.778 20.9547 13.8954 21.1893 14.0234 21.424C14.13 21.616 14.258 21.776 14.4074 21.904C14.514 21.9893 14.6314 22.0853 14.7594 22.192C14.8874 22.2987 15.0047 22.4053 15.1114 22.512L15.7834 23.184C15.826 23.2053 15.858 23.2373 15.8794 23.28C15.922 23.3227 15.954 23.3653 15.9754 23.408C16.0394 23.4507 16.114 23.4613 16.1994 23.44C16.4127 23.376 16.626 23.2587 16.8394 23.088C17.1807 22.8107 17.458 22.5227 17.6714 22.224C17.8847 21.9253 18.0234 21.5733 18.0874 21.168C18.13 20.8053 18.0234 20.4853 17.7674 20.208C17.7247 20.1227 17.6607 20.0693 17.5754 20.048C17.426 19.9627 17.2767 19.888 17.1274 19.824C16.9994 19.7387 16.85 19.6747 16.6794 19.632C16.5087 19.568 16.3594 19.472 16.2314 19.344C16.146 19.2373 16.018 19.1733 15.8474 19.152C15.698 19.1093 15.5594 19.056 15.4314 18.992C15.3034 18.928 15.186 18.8533 15.0794 18.768C14.9514 18.6613 14.8234 18.576 14.6954 18.512C14.5674 18.4267 14.4394 18.3413 14.3114 18.256C14.1834 18.192 14.0554 18.1173 13.9274 18.032C13.8207 17.9467 13.714 17.8613 13.6074 17.776C13.458 17.6693 13.3194 17.5627 13.1914 17.456C13.0634 17.328 12.9354 17.2107 12.8074 17.104C12.722 17.0613 12.6687 17.0187 12.6474 16.976C12.5407 16.848 12.4234 16.7307 12.2954 16.624C12.1887 16.496 12.082 16.3573 11.9754 16.208C11.9114 16.1227 11.8474 16.048 11.7834 15.984C11.7194 15.8987 11.6447 15.8133 11.5594 15.728C11.474 15.6427 11.3887 15.5573 11.3034 15.472C11.2394 15.3653 11.186 15.2587 11.1434 15.152L10.8554 14.672C10.7487 14.4587 10.6527 14.2453 10.5674 14.032C10.482 13.8187 10.386 13.6053 10.2794 13.392C10.194 13.1573 10.1087 12.9227 10.0234 12.688C9.95938 12.4533 9.90604 12.2187 9.86338 11.984C9.84204 11.8133 9.81004 11.6533 9.76738 11.504C9.74604 11.3547 9.72471 11.2053 9.70338 11.056C9.68204 10.8213 9.67138 10.5973 9.67138 10.384C9.67138 10.1493 9.66071 9.91467 9.63938 9.68C9.63938 9.40267 9.66071 9.12533 9.70338 8.848C9.74604 8.57067 9.79938 8.29333 9.86338 8.016C9.90604 7.84533 9.94871 7.67467 9.99138 7.504C10.034 7.33333 10.0767 7.17333 10.1194 7.024C10.162 6.91733 10.2047 6.82133 10.2474 6.736C10.29 6.62933 10.322 6.53333 10.3434 6.448C10.514 6 10.7594 5.552 11.0794 5.104C11.186 4.95467 11.2927 4.816 11.3994 4.688C11.5274 4.53867 11.6554 4.4 11.7834 4.272C11.89 4.16533 11.9967 4.048 12.1034 3.92C12.21 3.792 12.306 3.664 12.3914 3.536C12.6687 3.17333 12.9887 2.90667 13.3514 2.736C13.714 2.544 14.13 2.46933 14.5994 2.512C15.1754 2.59733 15.7194 2.82133 16.2314 3.184C16.402 3.312 16.5727 3.45067 16.7434 3.6C16.9354 3.728 17.1167 3.86667 17.2874 4.016C17.714 4.35733 18.066 4.74133 18.3434 5.168C18.4714 5.36 18.5994 5.552 18.7274 5.744C18.8554 5.936 18.9727 6.128 19.0794 6.32C19.1434 6.40533 19.1967 6.49067 19.2394 6.576C19.282 6.66133 19.314 6.75733 19.3354 6.864C19.378 7.056 19.3887 7.248 19.3674 7.44C19.3674 7.61067 19.346 7.792 19.3034 7.984L19.2074 8.24C19.1434 8.34667 19.0794 8.464 19.0154 8.592C18.9514 8.72 18.8874 8.83733 18.8234 8.944C18.7807 9.02933 18.7274 9.11467 18.6634 9.2C18.6207 9.264 18.578 9.328 18.5354 9.392C18.3647 9.66933 18.2794 9.94667 18.2794 10.224V13.328C18.2794 13.7547 18.2154 14.16 18.0874 14.544C18.0874 14.5653 18.0767 14.5867 18.0554 14.608C18.0554 14.608 18.0554 14.6293 18.0554 14.672C18.0554 14.7787 18.0874 14.864 18.1514 14.928L18.4394 15.12C18.674 15.2693 18.8874 15.44 19.0794 15.632C19.2927 15.8027 19.506 15.9733 19.7194 16.144C19.8474 16.2507 19.9647 16.3787 20.0714 16.528C20.178 16.656 20.274 16.784 20.3594 16.912C20.4447 17.0187 20.5194 17.136 20.5834 17.264C20.6474 17.3707 20.7114 17.4773 20.7754 17.584C20.882 17.7333 20.9567 17.904 20.9994 18.096C21.0634 18.288 21.1167 18.48 21.1594 18.672V18.8C21.138 18.9493 21.138 19.1093 21.1594 19.28C21.1807 19.4507 21.202 19.6213 21.2234 19.792C21.2234 19.8347 21.2234 19.888 21.2234 19.952C21.2447 19.9947 21.2447 20.048 21.2234 20.112L21.1274 20.784C21.0847 20.8907 21.106 20.9547 21.1914 20.976C21.2554 20.976 21.2874 20.9973 21.2874 21.04C21.3514 21.0613 21.362 21.1147 21.3194 21.2C21.2767 21.2853 21.2234 21.3067 21.1594 21.264C21.1594 21.2427 21.1487 21.232 21.1274 21.232C21.0634 21.2107 21.0207 21.2213 20.9994 21.264C20.978 21.328 20.9567 21.392 20.9354 21.456C20.9354 21.52 20.9354 21.5947 20.9354 21.68C20.85 21.808 20.8287 21.9147 20.8714 22C20.8714 22.064 20.8607 22.1067 20.8394 22.128C20.7754 22.192 20.754 22.2773 20.7754 22.384C20.7754 22.4267 20.7434 22.4693 20.6794 22.512C20.5514 22.576 20.4554 22.6933 20.3914 22.864C20.2847 23.1413 20.1567 23.408 20.0074 23.664C19.8794 23.8987 19.73 24.1333 19.5594 24.368C19.3887 24.6027 19.2074 24.8373 19.0154 25.072C18.8447 25.2853 18.642 25.488 18.4074 25.68C18.2154 25.8293 18.0127 25.968 17.7994 26.096C17.586 26.2453 17.362 26.3733 17.1274 26.48C17.042 26.5013 16.9567 26.544 16.8714 26.608L16.4874 26.8C16.3167 26.8213 16.146 26.9067 15.9754 27.056L15.7834 27.184C15.7194 27.248 15.666 27.3547 15.6234 27.504V28.368C15.6234 28.4533 15.6234 28.5387 15.6234 28.624C15.6234 28.7093 15.6127 28.7947 15.5914 28.88C15.57 28.9227 15.5594 28.976 15.5594 29.04C15.5594 29.104 15.5487 29.1573 15.5274 29.2C15.506 29.2853 15.4847 29.3707 15.4634 29.456C15.442 29.5627 15.41 29.6693 15.3674 29.776C15.2607 30.0747 15.0367 30.2027 14.6954 30.16ZM16.6474 14.096C16.7327 14.096 16.786 14.064 16.8074 14C16.8287 13.8933 16.8287 13.7867 16.8074 13.68C16.8074 13.5733 16.7967 13.4773 16.7754 13.392C16.754 13.2853 16.7434 13.1787 16.7434 13.072C16.7434 12.944 16.7327 12.8267 16.7114 12.72C16.7114 12.592 16.7007 12.464 16.6794 12.336C16.658 12.208 16.658 12.08 16.6794 11.952C16.7007 11.9307 16.7007 11.92 16.6794 11.92C16.6794 11.8987 16.6794 11.888 16.6794 11.888C16.658 11.7387 16.6474 11.6 16.6474 11.472C16.6474 11.344 16.6474 11.216 16.6474 11.088C16.6474 10.6613 16.562 10.2453 16.3914 9.84C16.242 9.49867 16.082 9.168 15.9114 8.848C15.762 8.528 15.602 8.208 15.4314 7.888C15.3674 7.76 15.282 7.64267 15.1754 7.536C15.09 7.408 14.994 7.29067 14.8874 7.184C14.802 7.056 14.6847 7.03467 14.5354 7.12C14.4074 7.14133 14.2687 7.22667 14.1194 7.376C13.9914 7.52533 13.874 7.68533 13.7674 7.856C13.6607 8.02667 13.5647 8.208 13.4794 8.4C13.458 8.464 13.4367 8.528 13.4154 8.592C13.394 8.656 13.3727 8.70933 13.3514 8.752C13.33 8.90133 13.3087 9.06133 13.2874 9.232C13.2874 9.38133 13.2874 9.54133 13.2874 9.712V10.128C13.2874 10.4267 13.3727 10.7467 13.5434 11.088C13.6927 11.408 13.906 11.728 14.1834 12.048C14.2474 12.1333 14.3114 12.2187 14.3754 12.304C14.4394 12.368 14.5034 12.4533 14.5674 12.56C14.7594 12.816 14.9727 13.04 15.2074 13.232C15.4634 13.424 15.73 13.6053 16.0074 13.776L16.4874 14.032C16.53 14.0533 16.562 14.064 16.5834 14.064C16.6047 14.064 16.626 14.0747 16.6474 14.096Z" fill="#F4442E"/>
</svg>
